<svg xmlns="http://www.w3.org/2000/svg" xml:space="preserve" width="244.2" height="244.2"><path d="M122.1 0C54.8 0 0 54.8 0 122.1s54.8 122.1 122.1 122.1 122.1-54.8 122.1-122.1S189.5 0 122.1 0z"/><path d="M142.5 423.4c-56.2 0-102-45.7-102-102s45.7-101.9 102-101.9 102 45.7 102 102-45.7 101.9-102 101.9z" style="fill:#f4b924;stroke:#fff;stroke-width:3.1299;stroke-miterlimit:10" transform="translate(-20.4 -199.3)"/><path d="M132.3 65.4V45h-20.4v20.4H78.6v24.7h51.6l-51.6 70.1v18.6h33.3v20.4h20.4v-20.4h33.4v-24.7H114L165.7 84V65.4z"/></svg>