<svg width="1471" height="909" version="1.0" viewBox="0 0 14710 9090" xmlns="http://www.w3.org/2000/svg"><path d="M0 4545V0h2085c1662 0 2085 3 2084 13 0 6-51 49-112 94-199 144-367 292-603 527-234 235-349 366-511 581-1099 1463-1405 3388-813 5119 188 551 468 1080 815 1541 168 223 282 353 509 581 226 225 390 369 598 522 64 48 117 93 118 100 0 9-423 12-2085 12H0zm10531 4533c0-7 50-50 112-95 200-147 378-302 608-532 232-233 345-362 514-586 548-729 917-1608 1050-2505 118-795 65-1580-161-2362-334-1159-1083-2224-2061-2932-29-21-53-44-53-52 0-12 294-14 2085-14h2085v9090h-2090c-1666 0-2090-3-2089-12z" fill="#f08b16"/><path d="M7030 9073c-347-33-569-70-812-132-1707-440-3020-1862-3322-3599-51-289-60-412-61-787 0-379 7-475 56-772C3181 2019 4526 561 6251 140 6669 38 6871 15 7350 15c404 0 512 8 810 61 1200 214 2278 922 2955 1939 510 768 765 1610 765 2530 0 1104-383 2135-1103 2971-120 138-411 423-545 534-266 218-534 392-847 551-530 267-1066 418-1670 469-109 9-601 12-685 3zm185-1779c28-8 111-28 185-45 208-46 240-56 240-79 0-11-38-171-85-357s-88-360-91-388l-6-50 148-38c82-20 170-37 196-37h47l15 53c8 28 42 162 76 297 95 381 110 430 131 430 46 0 445-104 462-120 5-4-9-75-32-156-96-354-159-641-144-655 5-4 64-28 132-54 425-157 635-271 794-431 168-168 267-377 297-628 29-242-55-583-193-786-77-112-187-204-316-262-81-37-222-74-316-82-147-14-159-21-109-67 117-108 210-297 234-471 36-262-132-653-349-812-74-55-185-106-289-133-130-34-398-42-652-19-96 8-178 12-182 8s-34-117-68-252c-103-413-140-540-159-540-18 0-439 108-452 116-16 9-10 39 47 261 76 293 102 407 110 474l6 56-113 31c-257 70-279 73-279 34 0-20-178-744-185-750-5-5-460 108-475 118-10 6 11 100 84 390 54 210 96 391 94 402-3 19-49 32-473 138-258 64-480 120-493 124-17 6-21 13-17 24 4 10 27 95 51 190 62 248 83 312 99 312 7 0 64-16 127-36 263-82 390-86 474-12 19 17 45 49 56 72 11 22 126 459 254 971 128 511 249 986 269 1055 37 128 53 258 41 324-9 47-64 100-130 125-28 10-107 28-174 40-68 12-139 28-159 36-34 15-35 15-29 62 3 27 10 113 16 193 17 238 32 360 44 360 6 0 52-12 101-25 227-64 824-205 865-205 15 0 28 43 84 273 50 205 137 538 141 537 0 0 23-7 50-16z" fill="#f08b16"/><path d="M7301 5748c-6-18-51-199-100-403-49-203-105-426-125-495-20-68-36-132-36-142 0-19 34-31 290-97 277-72 406-93 600-98 137-4 191-1 250 11 308 65 469 337 367 619-75 205-269 355-612 471-58 20-606 166-621 166-2 0-7-15-13-32zm-384-1565c-20-35-237-909-237-954 0-25 6-28 128-62 439-124 676-145 867-78 177 62 297 231 299 421 1 76-3 92-31 153-61 129-212 257-419 353-207 97-587 201-607 167z" fill="#f08b16"/></svg>