<svg xmlns="http://www.w3.org/2000/svg" width="365.546" height="591.999" viewBox="0 0 96.717 156.633"><g style="display:inline"><path d="M.225 85.613c17.045 9.041 34.806 18.518 48.558 25.845l48.16-25.837c-17.438 25.911-31.962 47.464-48.16 71.32-16.219-23.806-34.14-50.083-48.558-71.328zm1.864-7.138 46.749-24.947 46.146 24.766-46.106 24.969zM48.773 45.52.231 71.079 48.562.31l48.363 70.926z" style="display:inline;fill:#3ab83a;stroke-width:.352778" transform="translate(-.225 -.308)"/><path d="m48.783 111.458 48.16-25.837c-17.438 25.911-48.16 71.32-48.16 71.32zm.055-57.93 46.146 24.766-46.106 24.969zm-.065-8.01-.21-45.21 48.362 70.927z" style="display:inline;fill:#0b8311;fill-opacity:1;stroke-width:.352778" transform="translate(-.225 -.308)"/><path style="display:inline;fill:#0b8311;fill-opacity:1;stroke-width:.352778" d="m2.089 78.475 46.749 3.826 46.146-4.007-46.106 24.969z" transform="translate(-.225 -.308)"/><path d="m48.838 82.301 46.146-4.007-46.106 24.969-.04-20.962z" style="display:inline;fill:#146714;fill-opacity:1;stroke-width:.352778" transform="translate(-.225 -.308)"/></g></svg>